<?xml version="1.0" encoding="utf-8"?>
<!-- Generator: Adobe Illustrator 16.0.0, SVG Export Plug-In . SVG Version: 6.00 Build 0)  -->
<!DOCTYPE svg PUBLIC "-//W3C//DTD SVG 1.1//EN" "http://www.w3.org/Graphics/SVG/1.1/DTD/svg11.dtd">
<svg version="1.1" id="Слой_1" xmlns="http://www.w3.org/2000/svg" xmlns:xlink="http://www.w3.org/1999/xlink" x="0px" y="0px"
	 width="262.951px" height="126.68px" viewBox="0 0 262.951 126.68" enable-background="new 0 0 262.951 126.68"
	 xml:space="preserve">
<g id="LOGOTYPE_x0020__x0028_BASIC_x0029_">
	<g id="_159270672">
		<polygon fill="none" points="-0.144,-0.13 -0.144,126.521 262.806,126.521 262.806,-0.13 		"/>
		<g>
			<path fill="#a42b2b" d="M145.876,103.625c-0.864-0.504-1.368-1.297-1.584-2.232l1.584-0.287c0.072,0.287,0.216,0.575,0.36,0.863
				c0.144,0.288,0.359,0.504,0.647,0.648c0.288,0.144,0.648,0.359,1.008,0.432c0.433,0.072,0.864,0.145,1.513,0.145
				c0.504,0,0.936-0.072,1.296-0.145c0.432-0.072,0.72-0.216,1.008-0.359c0.288-0.145,0.504-0.361,0.648-0.648
				c0.144-0.288,0.216-0.576,0.216-0.936c0-0.361-0.072-0.721-0.288-0.937c-0.145-0.216-0.433-0.433-0.72-0.576
				c-0.288-0.144-0.721-0.288-1.152-0.36c-0.433-0.072-0.937-0.216-1.512-0.359c-0.36-0.072-0.648-0.145-1.009-0.217
				c-0.359-0.071-0.647-0.215-0.936-0.287c-0.288-0.145-0.576-0.289-0.864-0.433s-0.504-0.36-0.72-0.575
				c-0.216-0.217-0.36-0.505-0.433-0.793c-0.144-0.287-0.144-0.647-0.144-1.008c0-0.576,0.144-1.08,0.36-1.439
				c0.216-0.433,0.575-0.721,0.936-1.009c0.432-0.288,0.864-0.432,1.44-0.575c0.576-0.145,1.151-0.145,1.8-0.145
				c0.72,0,1.368,0.072,1.872,0.145c0.504,0.144,0.936,0.287,1.296,0.504c0.36,0.216,0.648,0.504,0.864,0.863
				c0.216,0.36,0.359,0.721,0.504,1.225l-1.584,0.287c-0.072-0.287-0.216-0.504-0.36-0.791c-0.144-0.217-0.359-0.433-0.576-0.576
				c-0.216-0.145-0.575-0.288-0.863-0.36c-0.36-0.071-0.721-0.144-1.225-0.144c-0.576,0-1.008,0.072-1.368,0.144
				c-0.359,0.144-0.647,0.216-0.936,0.433c-0.216,0.144-0.36,0.359-0.504,0.576c-0.072,0.215-0.145,0.504-0.145,0.719
				c0,0.361,0.072,0.648,0.288,0.865c0.216,0.215,0.433,0.432,0.72,0.575c0.288,0.144,0.648,0.288,1.08,0.36
				c0.433,0.072,0.792,0.216,1.297,0.288c0.359,0.071,0.72,0.144,1.08,0.288c0.359,0.072,0.72,0.216,1.079,0.287
				c0.288,0.145,0.648,0.289,0.937,0.433s0.576,0.36,0.792,0.576s0.36,0.504,0.504,0.864c0.145,0.287,0.216,0.72,0.216,1.152
				c0,0.504-0.071,0.936-0.288,1.367c-0.216,0.432-0.504,0.792-0.936,1.08c-0.433,0.288-0.937,0.576-1.512,0.721
				c-0.648,0.144-1.368,0.287-2.16,0.287c-1.513,0-2.664-0.287-3.456-0.791L145.876,103.625z M164.093,103.913L164.093,103.913
				c-0.792-0.288-1.368-0.72-1.872-1.296c-0.505-0.576-0.864-1.225-1.152-1.944c-0.216-0.72-0.36-1.584-0.36-2.448
				c0-0.936,0.145-1.8,0.36-2.52c0.216-0.721,0.647-1.369,1.152-1.944c0.504-0.504,1.08-0.937,1.872-1.224
				c0.72-0.289,1.584-0.433,2.592-0.433c0.72,0,1.368,0.072,1.944,0.216c0.575,0.145,1.008,0.288,1.439,0.576
				c0.433,0.216,0.72,0.504,1.008,0.864s0.504,0.72,0.721,1.151l-1.513,0.433c-0.144-0.288-0.288-0.576-0.504-0.792
				c-0.216-0.217-0.432-0.432-0.72-0.576s-0.648-0.288-1.008-0.359c-0.36-0.072-0.864-0.145-1.296-0.145
				c-0.721,0-1.368,0.145-1.872,0.359c-0.505,0.217-1.009,0.504-1.297,0.937c-0.359,0.433-0.647,0.937-0.792,1.513
				c-0.144,0.575-0.216,1.224-0.216,1.943c0,0.721,0.072,1.368,0.288,1.944c0.216,0.575,0.433,1.08,0.792,1.512
				c0.36,0.433,0.792,0.792,1.368,1.009c0.504,0.215,1.152,0.359,1.872,0.359c0.504,0,0.864-0.072,1.296-0.145
				c0.36-0.071,0.72-0.215,1.08-0.287c0.288-0.145,0.576-0.289,0.864-0.433c0.216-0.144,0.432-0.288,0.576-0.504v-2.16h-3.528
				v-1.368h5.04v4.104c-0.288,0.288-0.576,0.504-0.936,0.792c-0.36,0.216-0.721,0.432-1.225,0.648
				c-0.432,0.144-0.936,0.359-1.439,0.432c-0.505,0.072-1.08,0.145-1.656,0.145c-1.008,0-1.872-0.145-2.664-0.433L164.093,103.913z
				 M120.819,104.201L120.819,104.201V92.32h3.96c0.937,0,1.8,0.145,2.521,0.36c0.792,0.216,1.439,0.576,2.016,1.08
				s1.008,1.08,1.296,1.8c0.288,0.721,0.504,1.584,0.504,2.592s-0.144,1.873-0.432,2.664c-0.288,0.721-0.72,1.368-1.225,1.873
				c-0.504,0.504-1.151,0.863-1.871,1.151c-0.721,0.288-1.44,0.36-2.305,0.36H120.819z M133.347,104.201L133.347,104.201V92.32
				h9.072v1.297h-7.416v3.815h6.912v1.296h-6.912v4.176h7.776v1.297h-9.36H133.347z M156.604,104.201L156.604,104.201V92.32h1.655
				v11.881H156.604z M174.677,104.201L174.677,104.201V92.32h1.872l6.408,10.225c0-0.288,0-0.576-0.072-0.864
				c0-0.216,0-0.504-0.072-0.792c0-0.288,0-0.576,0-0.792V92.32h1.44v11.881h-1.944l-6.336-10.152c0,0.287,0,0.576,0,0.792
				s0,0.504,0.072,0.72c0,0.288,0,0.504,0,0.721v7.92h-1.44H174.677z M126.795,102.617L126.795,102.617
				c0.505-0.217,1.009-0.504,1.368-0.937c0.36-0.432,0.721-0.937,0.937-1.512c0.216-0.576,0.359-1.296,0.359-2.089
				c0-0.791-0.144-1.512-0.359-2.088s-0.576-1.008-1.008-1.439c-0.433-0.36-0.937-0.648-1.513-0.792
				c-0.576-0.216-1.224-0.288-1.943-0.288h-2.305v9.288h2.664c0.648,0,1.225-0.071,1.729-0.288L126.795,102.617z M156.244,89.44
				L156.244,89.44c-0.72-0.288-1.296-0.72-1.8-1.296s-0.864-1.225-1.08-1.944c-0.216-0.792-0.36-1.584-0.36-2.448
				c0-0.936,0.145-1.8,0.36-2.52c0.288-0.721,0.647-1.368,1.151-1.944c0.505-0.504,1.08-0.937,1.801-1.224
				c0.72-0.288,1.512-0.432,2.448-0.432c1.296,0,2.304,0.215,3.168,0.719c0.863,0.505,1.439,1.225,1.872,2.232l-1.513,0.504
				c-0.144-0.287-0.288-0.576-0.432-0.791c-0.216-0.289-0.432-0.505-0.72-0.721s-0.648-0.359-1.009-0.504
				c-0.359-0.145-0.792-0.216-1.296-0.216c-0.647,0-1.296,0.144-1.8,0.36c-0.504,0.215-0.936,0.575-1.296,0.936
				c-0.36,0.432-0.648,0.936-0.792,1.512c-0.145,0.576-0.288,1.225-0.288,1.944s0.072,1.368,0.288,1.944s0.504,1.08,0.864,1.512
				c0.359,0.432,0.792,0.792,1.296,1.008c0.504,0.217,1.151,0.36,1.8,0.36c0.504,0,0.864-0.072,1.224-0.144
				c0.36-0.145,0.721-0.289,1.009-0.505s0.575-0.504,0.863-0.792c0.217-0.287,0.433-0.648,0.648-1.008l1.296,0.648
				c-0.216,0.432-0.504,0.863-0.792,1.224s-0.72,0.72-1.152,1.008c-0.432,0.288-0.936,0.505-1.439,0.648
				c-0.576,0.144-1.152,0.216-1.8,0.216c-0.937,0-1.801-0.145-2.521-0.432V89.44z M191.813,89.44L191.813,89.44
				c-0.721-0.288-1.368-0.72-1.872-1.296c-0.505-0.576-0.864-1.225-1.08-1.944c-0.217-0.792-0.36-1.584-0.36-2.448
				c0-0.936,0.144-1.8,0.36-2.52c0.288-0.721,0.647-1.368,1.151-1.944c0.504-0.504,1.152-0.937,1.872-1.224
				c0.721-0.288,1.584-0.432,2.521-0.432c0.936,0,1.8,0.144,2.52,0.432c0.721,0.287,1.368,0.72,1.872,1.224s0.864,1.152,1.152,1.944
				c0.288,0.72,0.36,1.584,0.36,2.52c0,0.937-0.145,1.801-0.433,2.521c-0.288,0.792-0.647,1.44-1.151,1.944
				c-0.505,0.576-1.152,0.936-1.872,1.224c-0.721,0.288-1.584,0.433-2.521,0.433c-1.008,0-1.872-0.145-2.592-0.433H191.813z
				 M222.63,89.44L222.63,89.44c-0.72-0.288-1.296-0.72-1.8-1.296s-0.864-1.225-1.08-1.944c-0.216-0.792-0.36-1.584-0.36-2.448
				c0-0.936,0.145-1.8,0.36-2.52c0.216-0.721,0.647-1.368,1.151-1.944c0.504-0.504,1.08-0.937,1.801-1.224
				c0.72-0.288,1.512-0.432,2.447-0.432c1.297,0,2.305,0.215,3.169,0.719c0.863,0.505,1.512,1.225,1.872,2.232l-1.513,0.504
				c-0.144-0.287-0.288-0.576-0.432-0.791c-0.216-0.289-0.433-0.505-0.72-0.721c-0.288-0.216-0.648-0.359-1.009-0.504
				c-0.359-0.145-0.863-0.216-1.296-0.216c-0.647,0-1.296,0.144-1.8,0.36c-0.504,0.215-0.937,0.575-1.296,0.936
				c-0.36,0.432-0.576,0.936-0.792,1.512s-0.288,1.225-0.288,1.944s0.072,1.368,0.288,1.944s0.504,1.08,0.864,1.512
				c0.359,0.432,0.792,0.792,1.367,1.008c0.504,0.217,1.152,0.36,1.801,0.36c0.432,0,0.863-0.072,1.224-0.144
				c0.36-0.145,0.72-0.289,1.008-0.505s0.576-0.504,0.792-0.792c0.216-0.287,0.433-0.648,0.648-1.008l1.296,0.648
				c-0.216,0.432-0.504,0.863-0.792,1.224s-0.72,0.72-1.152,1.008c-0.432,0.288-0.863,0.505-1.439,0.648s-1.152,0.216-1.801,0.216
				c-0.936,0-1.8-0.145-2.52-0.432V89.44z M233.358,89.152L233.358,89.152c-0.864-0.504-1.368-1.296-1.584-2.232l1.584-0.287
				c0.071,0.287,0.216,0.576,0.359,0.863c0.145,0.217,0.36,0.504,0.648,0.648s0.647,0.359,1.008,0.432
				c0.432,0.072,0.937,0.145,1.512,0.145c0.505,0,0.937-0.072,1.297-0.145c0.432-0.072,0.72-0.216,1.008-0.359
				c0.288-0.145,0.504-0.36,0.647-0.648c0.145-0.288,0.217-0.576,0.217-0.936c0-0.36-0.072-0.721-0.288-0.937
				c-0.145-0.216-0.433-0.432-0.721-0.576c-0.288-0.144-0.72-0.288-1.151-0.36c-0.433-0.144-0.937-0.215-1.513-0.359
				c-0.359-0.072-0.647-0.145-1.008-0.216c-0.36-0.072-0.647-0.216-0.936-0.288c-0.288-0.145-0.576-0.288-0.864-0.432
				c-0.288-0.145-0.504-0.36-0.72-0.576c-0.217-0.217-0.36-0.504-0.505-0.793c-0.144-0.287-0.144-0.647-0.144-1.008
				c0-0.576,0.144-1.08,0.36-1.439c0.216-0.432,0.575-0.721,0.936-1.008c0.432-0.289,0.864-0.433,1.44-0.576
				c0.576-0.145,1.151-0.145,1.8-0.145c0.72,0,1.368,0.072,1.872,0.145c0.504,0.144,0.936,0.287,1.296,0.504
				c0.36,0.216,0.648,0.504,0.864,0.863c0.216,0.36,0.359,0.721,0.504,1.152l-1.584,0.288c-0.072-0.288-0.145-0.575-0.36-0.792
				c-0.144-0.216-0.359-0.432-0.576-0.576c-0.216-0.144-0.504-0.287-0.863-0.359c-0.36-0.072-0.721-0.145-1.225-0.145
				c-0.576,0-1.008,0.072-1.368,0.145c-0.359,0.072-0.647,0.216-0.936,0.432c-0.216,0.145-0.36,0.36-0.504,0.576
				c-0.072,0.216-0.145,0.504-0.145,0.72c0,0.36,0.072,0.648,0.288,0.864c0.145,0.216,0.433,0.432,0.721,0.576
				c0.287,0.144,0.647,0.288,1.079,0.359c0.433,0.145,0.864,0.217,1.297,0.289c0.359,0.071,0.72,0.144,1.08,0.287
				c0.359,0.072,0.72,0.145,1.008,0.288c0.359,0.144,0.647,0.288,0.936,0.433c0.288,0.144,0.576,0.359,0.792,0.576
				c0.216,0.215,0.36,0.504,0.504,0.863c0.145,0.288,0.217,0.721,0.217,1.152c0,0.504-0.072,0.936-0.288,1.368
				c-0.217,0.432-0.504,0.792-0.864,1.079c-0.432,0.289-0.937,0.576-1.512,0.721c-0.576,0.145-1.368,0.288-2.16,0.288
				c-1.513,0-2.664-0.288-3.456-0.792V89.152z M120.819,89.729L120.819,89.729V77.848h9.072v1.297h-7.416v3.816h6.912v1.295h-6.912
				v4.177h7.776v1.296h-9.36H120.819z M132.34,89.729L132.34,89.729V77.848h1.584v10.585h6.048v1.296H132.34z M141.987,89.729
				L141.987,89.729V77.848h9.072v1.297h-7.416v3.816h6.912v1.295h-6.912v4.177h7.776v1.296h-9.36H141.987z M169.133,89.729
				L169.133,89.729V79.145h-4.104v-1.297h9.792v1.297h-4.104v10.584H169.133z M176.621,89.729L176.621,89.729V77.848h5.615
				c0.648,0,1.297,0.072,1.801,0.217c0.504,0.144,0.936,0.359,1.296,0.648c0.359,0.287,0.647,0.647,0.792,1.079
				c0.216,0.433,0.288,0.864,0.288,1.44c0,0.359-0.072,0.72-0.145,1.08c-0.144,0.359-0.288,0.72-0.504,1.008
				s-0.576,0.576-0.936,0.792c-0.36,0.216-0.792,0.36-1.296,0.504l3.384,5.112h-1.872l-3.096-4.969h-3.744v4.969H176.621z
				 M202.613,89.729L202.613,89.729V77.848h1.872l6.408,10.225c0-0.288,0-0.576-0.072-0.792c0-0.216,0-0.504,0-0.792
				s0-0.576,0-0.792V77.92h1.44v11.881h-1.944l-6.408-10.152c0,0.288,0,0.576,0.072,0.863c0,0.217,0,0.504,0.072,0.721
				c0,0.288,0,0.504,0,0.648v7.92h-1.44V89.729z M215.285,89.729L215.285,89.729V77.848h1.656v11.881H215.285z M196.349,88.217
				L196.349,88.217c0.504-0.217,0.936-0.576,1.296-1.008c0.359-0.433,0.575-0.937,0.792-1.513c0.144-0.576,0.216-1.296,0.216-1.944
				c0-0.72-0.072-1.367-0.288-1.943s-0.432-1.08-0.792-1.512c-0.36-0.433-0.792-0.721-1.296-0.937
				c-0.576-0.216-1.152-0.36-1.872-0.36s-1.368,0.145-1.872,0.36c-0.576,0.216-1.008,0.576-1.368,0.937
				c-0.36,0.432-0.648,0.936-0.792,1.512c-0.145,0.576-0.288,1.224-0.288,1.943c0,0.721,0.072,1.368,0.288,1.944
				s0.432,1.08,0.792,1.513c0.36,0.432,0.792,0.791,1.368,1.008c0.576,0.216,1.152,0.359,1.872,0.359S195.773,88.433,196.349,88.217
				z M183.316,83.32L183.316,83.32c0.36-0.145,0.576-0.288,0.864-0.504c0.216-0.216,0.36-0.432,0.504-0.721
				c0.145-0.287,0.145-0.575,0.145-0.863c0-0.36-0.072-0.648-0.216-0.936c-0.145-0.289-0.288-0.505-0.576-0.648
				c-0.216-0.217-0.504-0.288-0.864-0.36c-0.36-0.071-0.72-0.144-1.152-0.144h-3.815v4.392h3.888c0.432,0,0.864-0.071,1.224-0.144
				V83.32z"/>
			<path fill="#a42b2b" d="M125.499,70l-5.976-23.185h4.536l4.032,16.92l4.104-16.92h4.752l4.104,17.136l4.032-17.136h4.536
				L143.643,70h-5.328l-3.744-16.488L130.827,70h-5.256H125.499z M148.395,70L148.395,70l8.425-23.185h4.752L169.996,70h-4.536
				l-2.016-5.904h-8.424L153.004,70h-4.536H148.395z M171.724,70L171.724,70V46.815h7.272c1.8,0,3.456,0.216,4.896,0.648
				c1.513,0.432,2.809,1.152,3.889,2.088c1.08,0.936,1.943,2.088,2.52,3.528s0.864,3.096,0.864,5.112c0,1.944-0.288,3.6-0.864,5.112
				c-0.576,1.44-1.368,2.664-2.376,3.673c-1.008,1.008-2.232,1.728-3.6,2.231C182.957,69.712,181.444,70,179.86,70h-8.208H171.724z
				 M182.812,65.68L182.812,65.68c0.792-0.359,1.513-0.863,2.16-1.512c0.576-0.648,1.08-1.512,1.44-2.448
				c0.359-1.008,0.504-2.088,0.504-3.456s-0.216-2.448-0.576-3.456c-0.36-0.936-0.864-1.728-1.512-2.376
				c-0.648-0.576-1.44-1.08-2.305-1.368c-0.863-0.288-1.872-0.432-3.023-0.432h-3.456v15.48h4.104c0.937,0,1.872-0.144,2.664-0.504
				V65.68z M162.22,60.424L162.22,60.424l-3.024-8.712l-2.952,8.712H162.22z M163.301,43.647L163.301,43.647
				c-1.297-0.504-2.593-1.512-3.528-2.592c-0.937-1.08-1.656-2.376-2.088-3.816c-0.433-1.512-0.721-3.096-0.721-4.824
				s0.216-3.24,0.721-4.752c0.504-1.512,1.151-2.736,2.088-3.816c0.936-1.08,2.16-1.944,3.528-2.592
				c1.367-0.504,2.735-0.792,4.464-0.792c1.584,0,2.88,0.216,4.248,0.792s2.592,1.44,3.6,2.52c0.937,1.08,1.729,2.304,2.232,3.816
				c0.504,1.512,0.792,3.024,0.792,4.824s-0.216,3.456-0.792,4.968c-0.504,1.512-1.296,2.736-2.232,3.816
				c-0.936,1.08-2.16,1.944-3.6,2.52c-1.152,0.504-2.376,0.72-4.248,0.72C166.108,44.439,164.812,44.224,163.301,43.647z
				 M119.595,44.079L119.595,44.079V20.967h6.768c1.512,0,2.736,0.144,3.816,0.576c1.08,0.36,2.016,0.864,2.664,1.512
				c0.72,0.648,1.224,1.44,1.584,2.304c0.359,0.936,0.504,1.872,0.504,2.952c0,1.008-0.145,1.944-0.504,2.88
				c-0.36,0.936-0.864,1.728-1.512,2.448c-0.721,0.72-1.585,1.296-2.664,1.656c-1.08,0.432-2.305,0.648-3.816,0.648h-2.736v8.136
				h-4.248H119.595z M138.244,44.079L138.244,44.079V20.967h6.768c1.44,0,2.736,0.144,3.816,0.504
				c1.08,0.36,2.016,0.792,2.736,1.368c0.72,0.576,1.296,1.368,1.655,2.16c0.36,0.864,0.504,1.8,0.504,2.88
				c0,0.864-0.144,1.656-0.359,2.376c-0.216,0.72-0.576,1.368-1.08,1.944c-0.433,0.576-1.008,1.008-1.584,1.368l-1.008,0.504
				l8.64,10.008h-5.76l-7.2-8.784h-2.809v8.784h-4.248H138.244z M181.877,44.079L181.877,44.079V20.967h5.544l5.256,11.232
				l5.185-11.232h5.544v23.112h-4.248V27.447l-5.112,11.088h-2.808l-5.112-11.088v16.632H181.877z M170.428,40.191L170.428,40.191
				c0.792-0.432,1.439-0.864,2.016-1.656c0.504-0.72,0.937-1.656,1.225-2.664c0.216-1.008,0.359-2.16,0.359-3.384
				c0-1.224-0.144-2.16-0.359-3.24c-0.288-1.008-0.648-1.944-1.225-2.664c-0.504-0.72-1.151-1.224-1.943-1.656
				c-0.793-0.432-1.872-0.576-2.736-0.576s-1.872,0.145-2.664,0.576c-0.792,0.432-1.44,0.936-1.944,1.656
				c-0.576,0.72-1.008,1.656-1.296,2.664s-0.432,2.016-0.432,3.24c0,1.224,0.144,2.376,0.432,3.384
				c0.288,1.008,0.72,1.944,1.296,2.664c0.576,0.72,1.224,1.224,2.016,1.656c0.793,0.432,1.729,0.576,2.593,0.576
				C168.7,40.767,169.636,40.623,170.428,40.191z M128.38,31.911L128.38,31.911c0.504-0.144,0.936-0.432,1.296-0.792
				c0.359-0.36,0.576-0.72,0.72-1.224s0.216-1.008,0.216-1.584c0-1.152-0.359-2.088-1.08-2.664c-0.72-0.576-1.728-0.936-3.168-0.936
				h-2.592v7.344h2.664c0.72,0,1.368-0.072,1.872-0.288L128.38,31.911z M147.099,31.263L147.099,31.263
				c0.504-0.144,0.937-0.432,1.296-0.72c0.505-0.504,0.937-1.08,0.937-2.448c0-1.08-0.36-1.944-1.08-2.448s-1.729-0.792-3.096-0.792
				h-2.593v6.696h2.736C146.019,31.551,146.595,31.479,147.099,31.263z"/>
			<path fill="#a42b2b" d="M20.881,105.497v-3.888h4.536l2.088,2.088c-0.144,0.216-0.216,0.432-0.216,0.72
				c0,0.432,0.216,0.864,0.504,1.08h-3.601c0.36-0.216,0.576-0.648,0.576-1.08c0-0.792-0.647-1.368-1.368-1.368
				c-0.792,0-1.367,0.648-1.367,1.368c0,0.432,0.216,0.864,0.575,1.08h-1.655H20.881z M30.096,104.417L30.096,104.417
				c0-0.792-0.647-1.368-1.368-1.368c-0.216,0-0.432,0.072-0.647,0.145l-2.232-2.232c-0.071-0.072-0.144-0.145-0.288-0.145h-4.68
				v-0.504h2.52c0.792,0,1.368-0.648,1.368-1.367c0-0.721-0.647-1.369-1.368-1.369c-0.792,0-1.367,0.648-1.367,1.369
				c0,0.215,0.071,0.432,0.144,0.647h-1.296v-1.224l1.296-1.297h3.456c0.072,0,0.216-0.072,0.288-0.072l0.792-0.791
				c0.072-0.072,0.144-0.145,0.144-0.288V86.2c0-0.071-0.071-0.216-0.144-0.288l-2.016-2.016c0.071-0.145,0.144-0.36,0.144-0.576
				c0-0.792-0.648-1.368-1.368-1.368c-0.792,0-1.368,0.576-1.368,1.368c0,0.721,0.648,1.368,1.368,1.368
				c0.288,0,0.504-0.072,0.72-0.216l1.872,1.871v9.434l-0.575,0.575h-3.456c-0.072,0-0.217,0-0.288,0.072l-0.864,0.864v-1.944
				l0.432-0.36H23.4c0.792,0,1.368-0.648,1.368-1.367c0-0.793-0.647-1.369-1.368-1.369c-0.72,0-1.367,0.648-1.367,1.369
				c0,0.215,0.071,0.432,0.144,0.647h-1.08c-0.072,0-0.144,0.071-0.216,0.071v-2.447h1.08c0.072,0,0.216-0.072,0.288-0.145
				l1.943-1.943c0.505-0.217,0.793-0.721,0.793-1.225c0-0.792-0.648-1.367-1.368-1.367c-0.792,0-1.368,0.647-1.368,1.367
				c0,0.576,0.359,1.08,0.864,1.297l-1.297,1.224h-0.936V81.088h5.184l4.753,4.752v16.057c0,0.217,0.071,0.432,0.216,0.576
				l1.368,1.368c-0.072,0.144-0.072,0.288-0.072,0.504c0,0.144,0,0.288,0.072,0.36l-0.721,0.72h-2.16
				c0.36-0.216,0.576-0.647,0.576-1.08V104.417z M35.136,104.417L35.136,104.417c0-0.72-0.575-1.296-1.296-1.368l-1.439-1.439
				V85.553c0-0.217-0.072-0.433-0.217-0.576l-5.184-5.185c-0.145-0.144-0.36-0.216-0.576-0.216h-5.544v-2.88l1.584,1.584
				c0.216,0.216,0.576,0.36,0.936,0.36c0.792,0,1.368-0.648,1.368-1.368c0-0.792-0.647-1.368-1.368-1.368
				c-0.647,0-1.151,0.432-1.296,0.936l-1.224-1.224v-3.384h1.152c0.144,0.576,0.72,1.008,1.367,1.008
				c0.721,0,1.368-0.648,1.368-1.368s-0.647-1.368-1.368-1.368c-0.647,0-1.151,0.432-1.367,1.008h-1.152V70l1.8-1.8
				c0.216,0.144,0.433,0.144,0.72,0.144c0.721,0,1.368-0.648,1.368-1.367c0-0.793-0.647-1.369-1.368-1.369
				c-0.792,0-1.367,0.576-1.367,1.369c0,0.215,0.071,0.432,0.144,0.647l-1.296,1.296v-2.88l3.528-3.528
				c0.216-0.216,0.359-0.576,0.359-0.936c0-0.792-0.647-1.368-1.368-1.368c-0.792,0-1.367,0.648-1.367,1.368
				c0,0.648,0.359,1.152,0.936,1.296l-2.16,2.159v-10.8l1.296,1.296c-0.144,0.216-0.216,0.432-0.216,0.72
				c0,0.792,0.648,1.368,1.368,1.368s1.368-0.648,1.368-1.368c0-0.792-0.648-1.368-1.368-1.368c-0.216,0-0.504,0.072-0.648,0.144
				l-1.872-1.872v-6.84h5.545l11.736,11.736v18.288c0,0.072,0.071,0.217,0.144,0.288l15.337,15.12
				c0.071,0.072,0.144,0.145,0.287,0.145h14.041l1.008,1.08c0.072,0.072,0.144,0.072,0.288,0.072h3.096
				c0.216,0.504,0.721,0.863,1.296,0.863c0.721,0,1.368-0.576,1.368-1.367c0-0.721-0.647-1.369-1.368-1.369
				c-0.647,0-1.224,0.504-1.367,1.152h-2.881l-1.008-1.008c-0.072-0.072-0.144-0.145-0.288-0.145h-14.04l-15.12-14.904V57.976
				c0-0.072-0.072-0.216-0.072-0.288L26.785,45.735c-0.072-0.072-0.145-0.144-0.288-0.144h-5.688v-0.792h6.12L39.529,57.4v18.504
				c0,0.072,0.072,0.216,0.144,0.288l14.257,14.04c0.072,0.072,0.144,0.145,0.288,0.145h15.265c0,0,0,0,0,0.071
				c0,0.72,0.575,1.368,1.367,1.368c0.721,0,1.368-0.576,1.368-1.368s-0.576-1.368-1.368-1.368c-0.504,0-0.863,0.217-1.151,0.576
				H54.361l-14.04-13.824V57.328c0-0.072-0.072-0.216-0.144-0.288L27.361,44.224c-0.072-0.072-0.145-0.072-0.288-0.072h-6.265
				v-4.752h13.681l11.592,11.592v-2.232L35.353,38.031c-0.145-0.144-0.36-0.216-0.576-0.216H20.736v-0.72h14.833l10.44,10.44v-2.304
				l-9.576-9.576c-0.145-0.144-0.36-0.216-0.576-0.216H20.665v-0.648h16.128l9.505,9.504h2.231l-10.8-10.873
				c-0.145-0.144-0.36-0.216-0.576-0.216H20.665v-5.472h1.008l4.752,4.752c0.145,0.144,0.36,0.216,0.576,0.216h3.888
				c0.217,0,0.433-0.072,0.576-0.216l3.744-3.744h5.761l7.992,7.992c0,0.072,0,0.072,0,0.144c0,0.792,0.575,1.368,1.367,1.368
				s1.368-0.576,1.368-1.368c0-0.72-0.576-1.368-1.368-1.368c-0.144,0-0.216,0-0.359,0l-8.064-8.136
				c-0.144-0.144-0.36-0.216-0.576-0.216h-6.408c-0.216,0-0.432,0.072-0.576,0.216L30.6,31.119h-3.239l-4.753-4.752
				c-0.144-0.145-0.359-0.216-0.575-0.216h-1.297v-3.6h3.744l1.152,1.152v2.88c0,0.216,0.072,0.432,0.216,0.576l2.088,2.088v0.144
				c0,0.792,0.576,1.368,1.368,1.368s1.368-0.647,1.368-1.368c0-0.792-0.647-1.368-1.368-1.368c-0.144,0-0.216,0-0.359,0.072
				l-1.801-1.8v-2.808c0-0.216-0.071-0.432-0.216-0.576l-1.656-1.584c-0.144-0.144-0.359-0.216-0.575-0.216h-4.032v-0.36h5.616
				l2.592,2.592c-0.576,0.144-1.008,0.72-1.008,1.296c0,0.792,0.576,1.368,1.368,1.368s1.367-0.648,1.367-1.368
				c0-0.648-0.432-1.224-1.08-1.368l-2.52-2.52h4.032l2.088,2.088c-0.072,0.216-0.144,0.432-0.144,0.648
				c0,0.792,0.575,1.368,1.367,1.368s1.368-0.576,1.368-1.368s-0.647-1.368-1.368-1.368c-0.359,0-0.647,0.144-0.863,0.288
				l-1.729-1.728h35.929v10.872l-2.304,2.304h-0.937c-0.216-0.288-0.647-0.504-1.079-0.504c-0.793,0-1.368,0.648-1.368,1.368
				c0,0.792,0.647,1.368,1.368,1.368c0.504,0,0.936-0.288,1.151-0.647h1.152c0.216,0,0.432-0.072,0.576-0.216l2.735-2.736
				c0.145-0.145,0.217-0.36,0.217-0.576v-11.16h30.673l-2.521,2.52c-0.504,0.216-0.792,0.72-0.792,1.224
				c0,0.792,0.648,1.368,1.368,1.368c0.792,0,1.368-0.648,1.368-1.368c0-0.648-0.504-1.224-1.152-1.368l2.376-2.376h0.937
				l-1.225,1.224c-0.072,0.072-0.072,0.144-0.072,0.216v3.096l-1.439,1.44h-3.816l-1.368-1.368c0.216-0.216,0.288-0.504,0.288-0.864
				c0-0.792-0.647-1.368-1.368-1.368c-0.792,0-1.368,0.576-1.368,1.368s0.648,1.368,1.368,1.368c0.217,0,0.504-0.072,0.648-0.144
				l1.44,1.44c0.071,0.072,0.144,0.072,0.216,0.072h4.032c0.071,0,0.144,0,0.216-0.072l1.584-1.656
				c0.072-0.072,0.072-0.144,0.072-0.144v-3.096l1.512-1.512h3.456v0.792l-1.872,1.872c-0.216-0.216-0.576-0.432-0.937-0.432
				c-0.792,0-1.367,0.648-1.367,1.368c0,0.792,0.647,1.368,1.367,1.368c0.792,0,1.368-0.648,1.368-1.368c0-0.216,0-0.36-0.144-0.576
				l1.584-1.584v11.88H93.459c-0.217-0.288-0.576-0.432-1.009-0.432c-0.792,0-1.368,0.648-1.368,1.368c0,0.144,0,0.288,0.072,0.36
				l-3.023,2.952c-0.217,0.216-0.288,0.432-0.288,0.72v43.705c0,0.288,0.071,0.504,0.288,0.721l2.447,2.447l0,0
				c0,0.793,0.648,1.368,1.368,1.368c0.792,0,1.368-0.575,1.368-1.368c0-0.792-0.576-1.367-1.368-1.367l-2.16-2.16V39.471
				l3.168-3.168c0.145-0.072,0.288-0.144,0.433-0.288h12.168v5.904c-0.504-0.504-1.008-1.08-1.439-1.44l0,0
				c0-0.792-0.648-1.368-1.368-1.368c-0.792,0-1.368,0.576-1.368,1.368s0.647,1.368,1.368,1.368c0.504,0,1.008-0.288,1.224-0.792
				c0.504,0.504,1.08,1.08,1.584,1.656v0.936c-0.576,0.504-1.151,1.152-1.656,1.656c-0.216-0.432-0.72-0.72-1.224-0.72
				c-0.792,0-1.368,0.648-1.368,1.368c0,0.792,0.648,1.368,1.368,1.368s1.368-0.576,1.368-1.368c0-0.072,0-0.072,0-0.072
				c0.432-0.432,0.936-0.936,1.512-1.44v9.648l-1.728,1.728c-0.217-0.36-0.648-0.576-1.152-0.576c-0.792,0-1.368,0.648-1.368,1.368
				c0,0.792,0.648,1.368,1.368,1.368c0.792,0,1.368-0.648,1.368-1.368c0-0.072,0-0.144,0-0.288l1.512-1.512v3.96l-1.872,1.944
				c-0.216-0.216-0.576-0.36-0.936-0.36c-0.792,0-1.368,0.648-1.368,1.368c0,0.792,0.647,1.368,1.368,1.368
				c0.792,0,1.368-0.648,1.368-1.368c0-0.144,0-0.216-0.072-0.36l1.512-1.512v9.721l-1.224-1.225
				c0.288-0.216,0.504-0.648,0.504-1.08c0-0.72-0.576-1.367-1.368-1.367s-1.368,0.647-1.368,1.367c0,0.793,0.648,1.368,1.368,1.368
				h0.144l1.944,1.944v10.729l-2.231-2.232c0.432-0.216,0.72-0.721,0.72-1.225c0-0.791-0.648-1.367-1.368-1.367
				c-0.792,0-1.368,0.576-1.368,1.367c0,0.648,0.433,1.225,1.08,1.369l3.168,3.168v2.735l-1.512-1.512c0-0.072,0-0.144,0-0.288
				c0-0.792-0.576-1.368-1.368-1.368s-1.368,0.576-1.368,1.368c0,0.721,0.648,1.368,1.368,1.368c0.36,0,0.72-0.144,1.008-0.433
				l1.872,1.873v4.968l-1.728,1.655c-0.217-0.144-0.504-0.215-0.721-0.215c-0.792,0-1.367,0.575-1.367,1.367
				c0,0.721,0.575,1.368,1.367,1.368s1.368-0.647,1.368-1.368c0-0.216-0.071-0.432-0.144-0.576l1.224-1.224v13.681h-2.016
				c0.359-0.217,0.576-0.648,0.576-1.08c0-0.792-0.576-1.368-1.368-1.368s-1.368,0.647-1.368,1.368c0,0.432,0.216,0.863,0.576,1.08
				h-3.601c0.36-0.217,0.576-0.648,0.576-1.08c0-0.792-0.648-1.368-1.368-1.368c-0.792,0-1.368,0.647-1.368,1.368
				c0,0.432,0.216,0.863,0.576,1.08h-3.672c0.216-0.217,0.36-0.576,0.36-0.937c0-0.72-0.648-1.368-1.368-1.368
				c-0.792,0-1.368,0.648-1.368,1.368c0,0.36,0.144,0.72,0.359,0.937h-3.239c0.216-0.217,0.359-0.576,0.359-0.937
				c0-0.72-0.576-1.368-1.368-1.368s-1.367,0.648-1.367,1.368c0,0.36,0.144,0.72,0.359,0.937h-2.664l-0.647-0.648
				c0.071-0.216,0.144-0.432,0.144-0.648c0-0.432-0.216-0.791-0.504-1.08l-2.592-2.592v-2.951c0-0.217-0.072-0.433-0.216-0.576
				l-1.944-1.944c-0.145-0.144-0.36-0.216-0.576-0.216H63.578v-0.721h-2.88v4.969h1.296v1.512H41.401l-1.08-1.08l2.304-2.304h1.08
				v-4.896h-3.096l-1.512-1.512v-1.296c0-0.217-0.072-0.432-0.217-0.576l-2.664-2.664v-2.952h-0.792l-1.943-1.944
				c0-0.072,0-0.144,0-0.216c0-0.433-0.217-0.864-0.576-1.08V79.36l3.023-3.024c0.145-0.144,0.217-0.359,0.217-0.576V60.64
				c0-0.432-0.36-0.792-0.792-0.792h-1.584V57.76h-0.792v-1.08c0.359-0.216,0.575-0.648,0.575-1.152
				c0-0.792-0.647-1.368-1.368-1.368c-0.792,0-1.367,0.576-1.367,1.368c0,0.432,0.216,0.864,0.575,1.152v1.08h-0.72v4.896h3.097
				v-1.224h0.792V75.4l-3.024,3.023c-0.145,0.145-0.216,0.36-0.216,0.576v1.297c-0.36,0.215-0.576,0.647-0.576,1.151
				c0,0.792,0.647,1.368,1.368,1.368c0.071,0,0.144,0,0.216,0l0.864,0.863v4.896h2.735l1.585,1.584v1.297
				c0,0.215,0.071,0.432,0.216,0.576l2.88,2.879v2.377l-1.44,1.439c-0.144,0-0.216-0.072-0.359-0.072
				c-0.792,0-1.368,0.648-1.368,1.369c0,0.791,0.647,1.367,1.368,1.367c0.216,0,0.432-0.072,0.575-0.144l1.009,1.008
				c0.144,0.144,0.359,0.216,0.576,0.216h20.952l2.304,2.305v0.287l-0.792,0.793h-1.8c0.216-0.217,0.36-0.576,0.36-0.937
				c0-0.792-0.576-1.368-1.368-1.368c-0.648,0-1.152,0.432-1.296,1.008h-2.017c-0.072,0-0.216,0.072-0.288,0.145l-1.224,1.224
				h-4.968c0.359-0.216,0.575-0.647,0.575-1.08c0-0.792-0.647-1.368-1.368-1.368c-0.792,0-1.367,0.648-1.367,1.368
				c0,0.433,0.216,0.864,0.575,1.08h-9.504c0.36-0.216,0.576-0.647,0.576-1.08c0-0.792-0.648-1.368-1.368-1.368
				c-0.792,0-1.368,0.648-1.368,1.368c0,0.433,0.216,0.864,0.576,1.08h-3.6c0.288-0.216,0.575-0.647,0.575-1.08V104.417z
				 M57.097,105.497L57.097,105.497l0.576-0.576h1.8c0.072,0.216,0.145,0.433,0.36,0.576H57.097z M67.25,104.561L67.25,104.561
				c0-0.791-0.576-1.367-1.368-1.367c-0.072,0-0.216,0-0.288,0.071l-1.728-1.728v-5.041h12.888l1.513,1.513v2.952
				c0,0.216,0.071,0.432,0.216,0.576l1.943,1.943c-0.144,0.217-0.216,0.504-0.216,0.793c0,0.575,0.433,1.08,0.937,1.295H77.33
				c0.216-0.215,0.36-0.576,0.36-0.936c0-0.792-0.648-1.368-1.368-1.368s-1.368,0.648-1.368,1.368c0,0.359,0.144,0.721,0.36,0.936
				h-5.545v-3.527c0-0.217-0.071-0.432-0.216-0.576l-2.304-2.232c0-0.072,0-0.144,0-0.287c0-0.793-0.648-1.369-1.368-1.369
				c-0.792,0-1.368,0.576-1.368,1.369c0,0.791,0.576,1.367,1.368,1.367c0.072,0,0.145,0,0.216,0l2.088,2.088v3.24h-1.224
				c0.216-0.216,0.36-0.576,0.36-0.936L67.25,104.561z M60.05,104.561L60.05,104.561c0-0.432,0.36-0.791,0.792-0.791
				s0.792,0.359,0.792,0.791s-0.36,0.793-0.792,0.793S60.05,104.992,60.05,104.561z M65.017,104.561L65.017,104.561
				c0-0.432,0.36-0.791,0.792-0.791c0.433,0,0.792,0.359,0.792,0.791s-0.359,0.793-0.792,0.793
				C65.378,105.354,65.017,104.992,65.017,104.561z M75.385,104.561L75.385,104.561c0-0.432,0.36-0.791,0.792-0.791
				c0.433,0,0.792,0.359,0.792,0.791s-0.359,0.793-0.792,0.793C75.746,105.354,75.385,104.992,75.385,104.561z M86.186,104.561
				L86.186,104.561c0-0.432,0.36-0.791,0.792-0.791s0.792,0.359,0.792,0.791s-0.36,0.793-0.792,0.793S86.186,104.992,86.186,104.561
				z M91.442,104.561L91.442,104.561c0-0.432,0.36-0.791,0.792-0.791c0.433,0,0.792,0.359,0.792,0.791s-0.359,0.793-0.792,0.793
				C91.802,105.354,91.442,104.992,91.442,104.561z M22.537,104.417L22.537,104.417c0-0.433,0.359-0.792,0.792-0.792
				c0.432,0,0.792,0.359,0.792,0.792c0,0.432-0.36,0.792-0.792,0.792C22.896,105.209,22.537,104.849,22.537,104.417z
				 M27.793,104.417L27.793,104.417c0-0.433,0.36-0.792,0.792-0.792s0.792,0.359,0.792,0.792c0,0.432-0.36,0.792-0.792,0.792
				S27.793,104.849,27.793,104.417z M32.833,104.417L32.833,104.417c0-0.433,0.36-0.792,0.792-0.792s0.792,0.359,0.792,0.792
				c0,0.432-0.36,0.792-0.792,0.792S32.833,104.849,32.833,104.417z M38.089,104.417L38.089,104.417c0-0.433,0.36-0.792,0.792-0.792
				c0.433,0,0.792,0.359,0.792,0.792c0,0.432-0.359,0.792-0.792,0.792C38.449,105.209,38.089,104.849,38.089,104.417z
				 M49.249,104.417L49.249,104.417c0-0.433,0.36-0.792,0.792-0.792c0.433,0,0.793,0.359,0.793,0.792
				c0,0.432-0.36,0.792-0.793,0.792C49.609,105.209,49.249,104.849,49.249,104.417z M96.915,104.417L96.915,104.417
				c0-0.433,0.359-0.792,0.792-0.792c0.432,0,0.792,0.359,0.792,0.792c0,0.432-0.36,0.792-0.792,0.792
				C97.274,105.209,96.915,104.849,96.915,104.417z M102.171,104.417L102.171,104.417c0-0.433,0.36-0.792,0.792-0.792
				s0.792,0.359,0.792,0.792c0,0.432-0.36,0.792-0.792,0.792S102.171,104.849,102.171,104.417z M80.57,104.201L80.57,104.201
				c0-0.432,0.36-0.793,0.792-0.793s0.792,0.361,0.792,0.793s-0.36,0.791-0.792,0.791S80.57,104.633,80.57,104.201z M83.45,99.736
				L83.45,99.736c0-0.504-0.216-0.863-0.576-1.151v-0.433h0.792v-4.896H80.57v4.896h0.72v0.433
				c-0.359,0.288-0.576,0.647-0.576,1.079c0,0.793,0.648,1.369,1.368,1.369c0.792,0,1.368-0.648,1.368-1.369V99.736z M36.073,99.305
				L36.073,99.305c0-0.432-0.216-0.863-0.576-1.152v-2.088h0.72v-4.896h-3.023v4.896h0.72v2.088
				c-0.36,0.217-0.576,0.648-0.576,1.152c0,0.792,0.576,1.368,1.368,1.368S36.073,100.025,36.073,99.305z M81.29,99.736
				L81.29,99.736c0-0.432,0.36-0.791,0.792-0.791c0.433,0,0.792,0.359,0.792,0.791c0,0.433-0.359,0.793-0.792,0.793
				C81.65,100.529,81.29,100.169,81.29,99.736z M99.075,99.16L99.075,99.16c0-0.791-0.648-1.367-1.368-1.367
				c-0.792,0-1.368,0.576-1.368,1.367c0,0.793,0.576,1.369,1.368,1.369S99.075,99.953,99.075,99.16z M104.331,99.16L104.331,99.16
				c0-0.791-0.576-1.367-1.368-1.367s-1.368,0.576-1.368,1.367c0,0.793,0.648,1.369,1.368,1.369
				C103.755,100.529,104.331,99.953,104.331,99.16z M38.089,99.664L38.089,99.664c0-0.432,0.36-0.791,0.792-0.791
				c0.433,0,0.792,0.359,0.792,0.791c0,0.433-0.359,0.793-0.792,0.793C38.449,100.457,38.089,100.097,38.089,99.664z M72.218,99.089
				L72.218,99.089c0-0.792-0.576-1.368-1.368-1.368s-1.367,0.648-1.367,1.368s0.575,1.368,1.367,1.368S72.218,99.809,72.218,99.089z
				 M77.402,99.089L77.402,99.089c0-0.792-0.648-1.368-1.368-1.368c-0.792,0-1.368,0.648-1.368,1.368s0.648,1.368,1.368,1.368
				C76.826,100.457,77.402,99.809,77.402,99.089z M88.635,99.089L88.635,99.089c0-0.792-0.576-1.368-1.368-1.368
				s-1.368,0.648-1.368,1.368s0.648,1.368,1.368,1.368C88.058,100.457,88.635,99.809,88.635,99.089z M29.953,98.873L29.953,98.873
				c0-0.793-0.648-1.368-1.368-1.368c-0.792,0-1.368,0.647-1.368,1.368c0,0.72,0.576,1.367,1.368,1.367S29.953,99.593,29.953,98.873
				z M33.841,99.305L33.841,99.305c0-0.432,0.36-0.792,0.792-0.792c0.433,0,0.792,0.36,0.792,0.792s-0.359,0.792-0.792,0.792
				C34.201,100.097,33.841,99.736,33.841,99.305z M46.657,98.656L46.657,98.656c0-0.791-0.576-1.367-1.368-1.367
				s-1.368,0.647-1.368,1.367c0,0.721,0.648,1.369,1.368,1.369C46.081,100.025,46.657,99.377,46.657,98.656z M50.977,98.656
				L50.977,98.656c0-0.791-0.576-1.367-1.368-1.367s-1.368,0.647-1.368,1.367c0,0.721,0.648,1.369,1.368,1.369
				C50.401,100.025,50.977,99.377,50.977,98.656z M55.657,98.656L55.657,98.656c0-0.791-0.647-1.367-1.367-1.367
				c-0.792,0-1.368,0.647-1.368,1.367c0,0.721,0.647,1.369,1.368,1.369C55.082,100.025,55.657,99.377,55.657,98.656z M59.977,98.656
				L59.977,98.656c0-0.791-0.647-1.367-1.368-1.367c-0.792,0-1.368,0.647-1.368,1.367c0,0.721,0.648,1.369,1.368,1.369
				C59.401,100.025,59.977,99.377,59.977,98.656z M96.843,99.16L96.843,99.16c0-0.432,0.36-0.791,0.792-0.791
				s0.792,0.359,0.792,0.791c0,0.433-0.36,0.793-0.792,0.793S96.843,99.593,96.843,99.16z M102.098,99.16L102.098,99.16
				c0-0.432,0.36-0.791,0.792-0.791c0.433,0,0.792,0.359,0.792,0.791c0,0.433-0.359,0.793-0.792,0.793
				C102.459,99.953,102.098,99.593,102.098,99.16z M69.986,99.017L69.986,99.017c0-0.432,0.359-0.792,0.792-0.792
				c0.432,0,0.792,0.36,0.792,0.792c0,0.433-0.36,0.792-0.792,0.792C70.345,99.809,69.986,99.449,69.986,99.017z M75.17,99.017
				L75.17,99.017c0-0.432,0.36-0.792,0.792-0.792c0.433,0,0.792,0.36,0.792,0.792c0,0.433-0.359,0.792-0.792,0.792
				C75.53,99.809,75.17,99.449,75.17,99.017z M86.402,99.017L86.402,99.017c0-0.432,0.36-0.792,0.792-0.792s0.792,0.36,0.792,0.792
				c0,0.433-0.36,0.792-0.792,0.792S86.402,99.449,86.402,99.017z M22.392,98.945L22.392,98.945c0-0.433,0.36-0.793,0.792-0.793
				c0.433,0,0.792,0.36,0.792,0.793c0,0.432-0.359,0.791-0.792,0.791C22.753,99.736,22.392,99.377,22.392,98.945z M64.802,98.873
				L64.802,98.873c0-0.432,0.36-0.793,0.792-0.793c0.433,0,0.792,0.361,0.792,0.793s-0.359,0.791-0.792,0.791
				C65.162,99.664,64.802,99.305,64.802,98.873z M27.72,98.801L27.72,98.801c0-0.432,0.36-0.792,0.792-0.792
				c0.433,0,0.792,0.36,0.792,0.792s-0.359,0.792-0.792,0.792C28.081,99.593,27.72,99.232,27.72,98.801z M44.426,98.585
				L44.426,98.585c0-0.433,0.359-0.792,0.792-0.792c0.432,0,0.792,0.359,0.792,0.792c0,0.432-0.36,0.792-0.792,0.792
				C44.785,99.377,44.426,99.017,44.426,98.585z M48.745,98.585L48.745,98.585c0-0.433,0.36-0.792,0.792-0.792
				c0.433,0,0.792,0.359,0.792,0.792c0,0.432-0.359,0.792-0.792,0.792C49.105,99.377,48.745,99.017,48.745,98.585z M53.426,98.585
				L53.426,98.585c0-0.433,0.359-0.792,0.792-0.792c0.432,0,0.792,0.359,0.792,0.792c0,0.432-0.36,0.792-0.792,0.792
				C53.785,99.377,53.426,99.017,53.426,98.585z M57.746,98.585L57.746,98.585c0-0.433,0.359-0.792,0.792-0.792
				c0.432,0,0.792,0.359,0.792,0.792c0,0.432-0.36,0.792-0.792,0.792C58.105,99.377,57.746,99.017,57.746,98.585z M29.808,93.617
				L29.808,93.617c0-0.793-0.647-1.369-1.367-1.369c-0.792,0-1.368,0.576-1.368,1.369c0,0.791,0.576,1.367,1.368,1.367
				S29.808,94.336,29.808,93.617z M102.386,93.688L102.386,93.688c0-0.432,0.36-0.792,0.792-0.792s0.792,0.36,0.792,0.792
				c0,0.433-0.36,0.792-0.792,0.792S102.386,94.121,102.386,93.688z M27.577,93.617L27.577,93.617c0-0.433,0.359-0.793,0.792-0.793
				c0.432,0,0.792,0.36,0.792,0.793c0,0.432-0.36,0.791-0.792,0.791C27.936,94.408,27.577,94.049,27.577,93.617z M22.249,93.545
				L22.249,93.545c0-0.433,0.359-0.793,0.792-0.793c0.432,0,0.792,0.36,0.792,0.793c0,0.432-0.36,0.791-0.792,0.791
				C22.608,94.336,22.249,93.977,22.249,93.545z M72.433,92.465L72.433,92.465c0-0.432,0.36-0.793,0.792-0.793
				c0.433,0,0.793,0.361,0.793,0.793s-0.36,0.792-0.793,0.792C72.794,93.257,72.433,92.896,72.433,92.465z M69.698,90.305
				L69.698,90.305c0-0.432,0.359-0.792,0.792-0.792c0.432,0,0.792,0.36,0.792,0.792s-0.36,0.792-0.792,0.792
				C70.057,91.097,69.698,90.736,69.698,90.305z M83.378,90.232L83.378,90.232v-4.896h-3.096v1.584H78.41
				c-0.216-0.215-0.576-0.359-0.936-0.359c-0.792,0-1.368,0.576-1.368,1.368s0.576,1.368,1.368,1.368
				c0.575,0,1.008-0.36,1.224-0.793h1.512v1.729h3.097H83.378z M97.635,88.864L97.635,88.864c0-0.72-0.648-1.368-1.368-1.368
				c-0.792,0-1.368,0.648-1.368,1.368c0,0.792,0.576,1.368,1.368,1.368C96.986,90.232,97.635,89.656,97.635,88.864z M29.737,88.576
				L29.737,88.576c0-0.792-0.648-1.367-1.368-1.367c-0.792,0-1.368,0.647-1.368,1.367c0,0.793,0.576,1.368,1.368,1.368
				S29.737,89.297,29.737,88.576z M95.474,88.864L95.474,88.864c0-0.432,0.36-0.792,0.792-0.792s0.792,0.36,0.792,0.792
				c0,0.433-0.36,0.792-0.792,0.792S95.474,89.297,95.474,88.864z M22.392,88.576L22.392,88.576c0-0.432,0.36-0.792,0.792-0.792
				c0.433,0,0.792,0.36,0.792,0.792s-0.359,0.793-0.792,0.793C22.753,89.369,22.392,89.008,22.392,88.576z M27.505,88.576
				L27.505,88.576c0-0.432,0.36-0.792,0.792-0.792s0.792,0.36,0.792,0.792s-0.36,0.793-0.792,0.793S27.505,89.008,27.505,88.576z
				 M43.489,89.225L43.489,89.225v-4.896h-1.296l-1.656-1.584c0-0.072,0-0.144,0-0.216c0-0.792-0.647-1.368-1.368-1.368
				c-0.72,0-1.368,0.576-1.368,1.368s0.576,1.368,1.368,1.368c0.072,0,0.145,0,0.216,0l1.009,1.008v4.465h3.096V89.225z M76.682,88
				L76.682,88c0-0.432,0.359-0.791,0.792-0.791c0.432,0,0.792,0.359,0.792,0.791c0,0.433-0.36,0.793-0.792,0.793
				C77.042,88.793,76.682,88.433,76.682,88z M55.441,87.713L55.441,87.713v-4.969h-2.016v4.969H55.441z M61.202,87.713
				L61.202,87.713v-4.969h-2.017v4.969H61.202z M66.962,87.713L66.962,87.713v-4.969h-2.016v4.969H66.962z M72.721,87.713
				L72.721,87.713v-4.969h-2.016v4.969H72.721z M91.154,85.769L91.154,85.769c0-0.433,0.36-0.792,0.792-0.792
				c0.433,0,0.792,0.359,0.792,0.792c0,0.432-0.359,0.792-0.792,0.792C91.514,86.561,91.154,86.2,91.154,85.769z M98.93,83.032
				L98.93,83.032c0-0.792-0.648-1.368-1.368-1.368c-0.792,0-1.368,0.576-1.368,1.368c0,0.72,0.576,1.368,1.368,1.368
				S98.93,83.752,98.93,83.032z M22.321,83.248L22.321,83.248c0-0.432,0.359-0.792,0.792-0.792c0.432,0,0.792,0.36,0.792,0.792
				s-0.36,0.793-0.792,0.793C22.68,84.041,22.321,83.68,22.321,83.248z M96.698,83.032L96.698,83.032
				c0-0.432,0.36-0.792,0.792-0.792c0.433,0,0.792,0.36,0.792,0.792c0,0.433-0.359,0.792-0.792,0.792
				C97.058,83.824,96.698,83.465,96.698,83.032z M101.955,83.032L101.955,83.032c0-0.432,0.359-0.792,0.792-0.792
				c0.432,0,0.792,0.36,0.792,0.792c0,0.433-0.36,0.792-0.792,0.792C102.314,83.824,101.955,83.465,101.955,83.032z M38.377,82.385
				L38.377,82.385c0-0.433,0.36-0.793,0.792-0.793c0.433,0,0.792,0.36,0.792,0.793c0,0.432-0.359,0.791-0.792,0.791
				C38.737,83.176,38.377,82.816,38.377,82.385z M31.033,81.016L31.033,81.016c0-0.432,0.359-0.791,0.792-0.791
				c0.432,0,0.792,0.359,0.792,0.791c0,0.433-0.36,0.793-0.792,0.793C31.392,81.809,31.033,81.448,31.033,81.016z M48.601,79.864
				L48.601,79.864l28.801-0.072l0.072-32.977l-28.801,0.072L48.601,79.864z M98.787,77.561L98.787,77.561
				c0-0.721-0.648-1.368-1.368-1.368c-0.792,0-1.368,0.647-1.368,1.368c0,0.791,0.576,1.367,1.368,1.367
				S98.787,78.352,98.787,77.561z M29.665,77.2L29.665,77.2c0-0.792-0.648-1.368-1.368-1.368c-0.792,0-1.368,0.648-1.368,1.368
				c0,0.792,0.576,1.368,1.368,1.368S29.665,77.92,29.665,77.2z M96.627,77.561L96.627,77.561c0-0.433,0.359-0.793,0.792-0.793
				c0.432,0,0.792,0.36,0.792,0.793c0,0.432-0.36,0.791-0.792,0.791C96.986,78.352,96.627,77.992,96.627,77.561z M101.883,77.561
				L101.883,77.561c0-0.433,0.36-0.793,0.792-0.793s0.792,0.36,0.792,0.793c0,0.432-0.36,0.791-0.792,0.791
				S101.883,77.992,101.883,77.561z M22.177,77.2L22.177,77.2c0-0.433,0.36-0.792,0.792-0.792s0.792,0.359,0.792,0.792
				s-0.36,0.792-0.792,0.792S22.177,77.633,22.177,77.2z M27.432,77.2L27.432,77.2c0-0.433,0.36-0.792,0.792-0.792
				c0.433,0,0.792,0.359,0.792,0.792s-0.359,0.792-0.792,0.792C27.793,77.992,27.432,77.633,27.432,77.2z M98.715,72.376
				L98.715,72.376c0-0.792-0.648-1.368-1.368-1.368c-0.792,0-1.368,0.648-1.368,1.368s0.576,1.368,1.368,1.368
				S98.715,73.096,98.715,72.376z M29.593,71.872L29.593,71.872c0-0.72-0.647-1.368-1.368-1.368c-0.792,0-1.368,0.576-1.368,1.368
				s0.576,1.368,1.368,1.368S29.593,72.592,29.593,71.872z M96.554,72.376L96.554,72.376c0-0.432,0.36-0.792,0.792-0.792
				s0.792,0.36,0.792,0.792c0,0.433-0.36,0.792-0.792,0.792S96.554,72.809,96.554,72.376z M45.793,72.952L45.793,72.952v-2.017
				h-4.392v2.017H45.793z M84.602,72.952L84.602,72.952v-2.017h-4.608v2.017h4.536H84.602z M22.104,71.8L22.104,71.8
				c0-0.432,0.36-0.792,0.792-0.792c0.433,0,0.792,0.36,0.792,0.792c0,0.433-0.359,0.792-0.792,0.792
				C22.465,72.592,22.104,72.232,22.104,71.8z M27.361,71.8L27.361,71.8c0-0.432,0.359-0.792,0.792-0.792
				c0.432,0,0.792,0.36,0.792,0.792c0,0.433-0.36,0.792-0.792,0.792C27.72,72.592,27.361,72.232,27.361,71.8z M33.337,70.216
				L33.337,70.216V65.32h-3.096v1.367H29.52c-0.144-0.647-0.72-1.151-1.367-1.151c-0.792,0-1.368,0.575-1.368,1.368
				c0,0.791,0.576,1.367,1.368,1.367h2.088v1.944H33.337z M96.194,66.977L96.194,66.977c0-0.721-0.647-1.369-1.368-1.369
				c-0.792,0-1.367,0.648-1.367,1.369c0,0.791,0.575,1.367,1.367,1.367S96.194,67.695,96.194,66.977z M94.034,66.977L94.034,66.977
				c0-0.433,0.36-0.793,0.792-0.793c0.433,0,0.792,0.36,0.792,0.793c0,0.432-0.359,0.791-0.792,0.791
				C94.394,67.768,94.034,67.408,94.034,66.977z M22.104,66.904L22.104,66.904c0-0.433,0.36-0.793,0.792-0.793
				c0.433,0,0.792,0.36,0.792,0.793c0,0.432-0.359,0.791-0.792,0.791C22.465,67.695,22.104,67.336,22.104,66.904z M27.361,66.904
				L27.361,66.904c0-0.433,0.359-0.793,0.792-0.793c0.432,0,0.792,0.36,0.792,0.793c0,0.432-0.36,0.791-0.792,0.791
				C27.72,67.695,27.361,67.336,27.361,66.904z M102.459,66.832L102.459,66.832c0-0.432,0.359-0.792,0.792-0.792
				c0.432,0,0.792,0.36,0.792,0.792s-0.36,0.792-0.792,0.792C102.818,67.624,102.459,67.264,102.459,66.832z M45.721,67.191
				L45.721,67.191v-1.943h-4.393v1.943H45.721z M84.53,67.191L84.53,67.191v-1.943h-4.608v1.943H84.53z M29.52,61.576L29.52,61.576
				c0-0.792-0.647-1.368-1.367-1.368c-0.792,0-1.368,0.576-1.368,1.368s0.576,1.368,1.368,1.368S29.52,62.368,29.52,61.576z
				 M98.642,61.36L98.642,61.36c0-0.792-0.647-1.368-1.368-1.368c-0.792,0-1.368,0.648-1.368,1.368c0,0.792,0.576,1.368,1.368,1.368
				S98.642,62.08,98.642,61.36z M27.361,61.576L27.361,61.576c0-0.432,0.359-0.792,0.792-0.792c0.432,0,0.792,0.36,0.792,0.792
				s-0.36,0.792-0.792,0.792C27.72,62.368,27.361,62.008,27.361,61.576z M22.104,61.504L22.104,61.504
				c0-0.432,0.36-0.792,0.792-0.792c0.433,0,0.792,0.36,0.792,0.792c0,0.432-0.359,0.792-0.792,0.792
				C22.465,62.296,22.104,61.936,22.104,61.504z M96.482,61.288L96.482,61.288c0-0.432,0.36-0.792,0.792-0.792
				c0.433,0,0.792,0.36,0.792,0.792c0,0.432-0.359,0.792-0.792,0.792C96.843,62.08,96.482,61.72,96.482,61.288z M101.739,61.288
				L101.739,61.288c0-0.432,0.359-0.792,0.792-0.792c0.432,0,0.792,0.36,0.792,0.792c0,0.432-0.36,0.792-0.792,0.792
				C102.098,62.08,101.739,61.72,101.739,61.288z M45.721,61.432L45.721,61.432v-2.016h-4.393v2.016H45.721z M84.53,61.432
				L84.53,61.432v-2.016h-4.608v2.016H84.53z M98.642,56.176L98.642,56.176c0-0.792-0.647-1.368-1.368-1.368
				c-0.792,0-1.368,0.648-1.368,1.368c0,0.792,0.576,1.368,1.368,1.368S98.642,56.896,98.642,56.176z M29.52,56.176L29.52,56.176
				c0-0.792-0.647-1.368-1.367-1.368c-0.792,0-1.368,0.648-1.368,1.368c0,0.792,0.576,1.368,1.368,1.368S29.52,56.896,29.52,56.176z
				 M96.482,56.176L96.482,56.176c0-0.432,0.36-0.792,0.792-0.792c0.433,0,0.792,0.36,0.792,0.792c0,0.432-0.359,0.792-0.792,0.792
				C96.843,56.968,96.482,56.607,96.482,56.176z M101.739,56.176L101.739,56.176c0-0.432,0.359-0.792,0.792-0.792
				c0.432,0,0.792,0.36,0.792,0.792c0,0.432-0.36,0.792-0.792,0.792C102.098,56.968,101.739,56.607,101.739,56.176z M22.033,56.176
				L22.033,56.176c0-0.432,0.359-0.792,0.792-0.792c0.432,0,0.792,0.36,0.792,0.792c0,0.432-0.36,0.792-0.792,0.792
				C22.392,56.968,22.033,56.607,22.033,56.176z M27.289,56.176L27.289,56.176c0-0.432,0.36-0.792,0.792-0.792
				s0.792,0.36,0.792,0.792c0,0.432-0.36,0.792-0.792,0.792S27.289,56.607,27.289,56.176z M30.888,55.096L30.888,55.096
				c0-0.432,0.36-0.792,0.792-0.792c0.433,0,0.792,0.36,0.792,0.792s-0.359,0.792-0.792,0.792
				C31.249,55.888,30.888,55.528,30.888,55.096z M45.649,55.744L45.649,55.744v-2.016h-4.393v2.016H45.649z M84.53,55.744
				L84.53,55.744v-2.016h-4.608v2.016H84.53z M98.642,51.136L98.642,51.136c0-0.792-0.647-1.368-1.368-1.368
				c-0.792,0-1.368,0.576-1.368,1.368c0,0.72,0.576,1.368,1.368,1.368S98.642,51.855,98.642,51.136z M103.898,51.136L103.898,51.136
				c0-0.792-0.575-1.368-1.367-1.368s-1.368,0.576-1.368,1.368c0,0.72,0.647,1.368,1.368,1.368
				C103.323,52.503,103.898,51.855,103.898,51.136z M96.41,51.136L96.41,51.136c0-0.432,0.36-0.792,0.793-0.792
				c0.432,0,0.792,0.36,0.792,0.792c0,0.432-0.36,0.792-0.792,0.792C96.77,51.928,96.41,51.567,96.41,51.136z M101.667,51.136
				L101.667,51.136c0-0.432,0.359-0.792,0.792-0.792c0.432,0,0.792,0.36,0.792,0.792c0,0.432-0.36,0.792-0.792,0.792
				C102.026,51.928,101.667,51.567,101.667,51.136z M98.57,45.664L98.57,45.664c0-0.792-0.647-1.368-1.367-1.368
				c-0.793,0-1.368,0.648-1.368,1.368c0,0.792,0.575,1.368,1.368,1.368C97.995,47.031,98.57,46.456,98.57,45.664z M96.41,45.664
				L96.41,45.664c0-0.432,0.36-0.792,0.793-0.792c0.432,0,0.792,0.36,0.792,0.792c0,0.432-0.36,0.792-0.792,0.792
				C96.77,46.456,96.41,46.095,96.41,45.664z M101.667,45.664L101.667,45.664c0-0.432,0.359-0.792,0.792-0.792
				c0.432,0,0.792,0.36,0.792,0.792c0,0.432-0.36,0.792-0.792,0.792C102.026,46.456,101.667,46.095,101.667,45.664z M34.705,44.799
				L34.705,44.799c0-0.72-0.648-1.368-1.368-1.368c-0.792,0-1.368,0.648-1.368,1.368c0,0.792,0.576,1.368,1.368,1.368
				S34.705,45.52,34.705,44.799z M32.545,44.799L32.545,44.799c0-0.432,0.36-0.792,0.792-0.792c0.433,0,0.792,0.36,0.792,0.792
				s-0.359,0.792-0.792,0.792C32.905,45.591,32.545,45.231,32.545,44.799z M72.433,44.151L72.433,44.151v-5.976h-2.016v5.976H72.433
				z M66.674,44.151L66.674,44.151v-5.976h-2.016v5.976H66.674z M60.914,44.151L60.914,44.151v-5.976h-2.017v5.976H60.914z
				 M55.153,44.151L55.153,44.151v-5.904h-2.016v5.904H55.153z M85.25,43.503L85.25,43.503v-4.968h-3.096v1.44h-1.008
				c-0.216-0.36-0.648-0.576-1.08-0.576c-0.792,0-1.368,0.648-1.368,1.368c0,0.792,0.648,1.368,1.368,1.368
				c0.504,0,0.864-0.216,1.152-0.576h1.008v1.872h3.096L85.25,43.503z M79.202,40.839L79.202,40.839c0-0.432,0.36-0.792,0.792-0.792
				s0.792,0.36,0.792,0.792s-0.36,0.792-0.792,0.792S79.202,41.271,79.202,40.839z M98.499,40.191L98.499,40.191
				c0-0.792-0.648-1.368-1.368-1.368c-0.792,0-1.368,0.576-1.368,1.368s0.576,1.368,1.368,1.368S98.499,40.911,98.499,40.191z
				 M96.339,40.191L96.339,40.191c0-0.432,0.359-0.792,0.792-0.792c0.432,0,0.792,0.36,0.792,0.792c0,0.432-0.36,0.792-0.792,0.792
				C96.698,40.983,96.339,40.623,96.339,40.191z M101.594,40.191L101.594,40.191c0-0.432,0.36-0.792,0.792-0.792
				s0.792,0.36,0.792,0.792c0,0.432-0.36,0.792-0.792,0.792S101.594,40.623,101.594,40.191z M47.953,39.327L47.953,39.327
				c0-0.792-0.647-1.368-1.368-1.368c-0.792,0-1.367,0.576-1.367,1.368s0.575,1.368,1.367,1.368
				C47.305,40.695,47.953,40.047,47.953,39.327z M45.793,39.327L45.793,39.327c0-0.432,0.36-0.792,0.792-0.792
				c0.433,0,0.792,0.36,0.792,0.792c0,0.432-0.359,0.792-0.792,0.792C46.153,40.119,45.793,39.759,45.793,39.327z M49.033,36.663
				L49.033,36.663c0-0.432,0.36-0.792,0.792-0.792c0.433,0,0.792,0.36,0.792,0.792c0,0.432-0.359,0.792-0.792,0.792
				C49.393,37.455,49.033,37.095,49.033,36.663z M91.299,34.791L91.299,34.791c0-0.432,0.359-0.792,0.792-0.792
				c0.432,0,0.792,0.36,0.792,0.792c0,0.432-0.36,0.792-0.792,0.792C91.658,35.583,91.299,35.223,91.299,34.791z M85.322,35.439
				L85.322,35.439v-4.968h-0.864l-1.8-1.728c0-0.072,0-0.144,0-0.216c0-0.792-0.576-1.368-1.368-1.368
				c-0.72,0-1.368,0.576-1.368,1.368s0.648,1.368,1.368,1.368c0.072,0,0.145,0,0.216,0l0.648,0.648v4.968h3.096L85.322,35.439z
				 M62.21,34.359L62.21,34.359c0-0.432,0.359-0.792,0.792-0.792c0.432,0,0.792,0.36,0.792,0.792c0,0.432-0.36,0.792-0.792,0.792
				C62.569,35.151,62.21,34.791,62.21,34.359z M74.882,32.775L74.882,32.775c0-0.792-0.576-1.368-1.368-1.368
				s-1.367,0.648-1.367,1.368c0,0.792,0.575,1.368,1.367,1.368S74.882,33.495,74.882,32.775z M72.721,32.775L72.721,32.775
				c0-0.433,0.36-0.792,0.792-0.792c0.433,0,0.792,0.36,0.792,0.792c0,0.432-0.359,0.792-0.792,0.792
				C73.082,33.567,72.721,33.207,72.721,32.775z M41.113,31.119L41.113,31.119c0-0.792-0.648-1.368-1.368-1.368
				c-0.792,0-1.368,0.648-1.368,1.368c0,0.792,0.576,1.368,1.368,1.368S41.113,31.839,41.113,31.119z M37.441,31.119L37.441,31.119
				c0-0.72-0.648-1.368-1.368-1.368c-0.792,0-1.368,0.648-1.368,1.368c0,0.792,0.576,1.368,1.368,1.368
				C36.793,32.487,37.441,31.839,37.441,31.119z M38.953,31.119L38.953,31.119c0-0.432,0.36-0.792,0.792-0.792
				c0.433,0,0.792,0.36,0.792,0.792c0,0.432-0.359,0.792-0.792,0.792C39.313,31.911,38.953,31.551,38.953,31.119z M35.281,31.119
				L35.281,31.119c0-0.432,0.36-0.792,0.792-0.792s0.792,0.36,0.792,0.792c0,0.432-0.36,0.792-0.792,0.792
				S35.281,31.551,35.281,31.119z M50.258,30.111L50.258,30.111c0-0.72-0.648-1.368-1.368-1.368c-0.792,0-1.368,0.648-1.368,1.368
				c0,0.792,0.576,1.368,1.368,1.368S50.258,30.903,50.258,30.111z M88.923,29.535L88.923,29.535c0-0.72-0.576-1.368-1.368-1.368
				s-1.368,0.648-1.368,1.368c0,0.792,0.647,1.368,1.368,1.368C88.274,30.903,88.923,30.255,88.923,29.535z M93.602,29.535
				L93.602,29.535c0-0.72-0.648-1.368-1.368-1.368c-0.792,0-1.368,0.648-1.368,1.368c0,0.792,0.648,1.368,1.368,1.368
				S93.602,30.255,93.602,29.535z M103.898,29.535L103.898,29.535c0-0.72-0.575-1.368-1.367-1.368s-1.368,0.648-1.368,1.368
				c0,0.792,0.647,1.368,1.368,1.368C103.323,30.903,103.898,30.255,103.898,29.535z M48.025,30.111L48.025,30.111
				c0-0.433,0.36-0.792,0.792-0.792s0.792,0.36,0.792,0.792c0,0.432-0.36,0.792-0.792,0.792S48.025,30.543,48.025,30.111z
				 M56.378,29.463L56.378,29.463c0-0.792-0.648-1.368-1.368-1.368c-0.792,0-1.368,0.648-1.368,1.368
				c0,0.792,0.576,1.368,1.368,1.368S56.378,30.183,56.378,29.463z M61.202,29.463L61.202,29.463c0-0.792-0.576-1.368-1.368-1.368
				s-1.368,0.648-1.368,1.368c0,0.792,0.647,1.368,1.368,1.368C60.626,30.831,61.202,30.183,61.202,29.463z M66.17,29.463
				L66.17,29.463c0-0.792-0.576-1.368-1.368-1.368s-1.368,0.648-1.368,1.368c0,0.792,0.576,1.368,1.368,1.368
				S66.17,30.183,66.17,29.463z M99.075,29.103L99.075,29.103c0-0.792-0.648-1.368-1.368-1.368c-0.792,0-1.368,0.576-1.368,1.368
				s0.647,1.368,1.368,1.368C98.499,30.471,99.075,29.823,99.075,29.103z M86.762,29.607L86.762,29.607
				c0-0.432,0.359-0.792,0.792-0.792c0.432,0,0.792,0.36,0.792,0.792s-0.36,0.792-0.792,0.792
				C87.122,30.399,86.762,30.039,86.762,29.607z M91.442,29.607L91.442,29.607c0-0.432,0.36-0.792,0.792-0.792
				c0.433,0,0.792,0.36,0.792,0.792s-0.359,0.792-0.792,0.792C91.802,30.399,91.442,30.039,91.442,29.607z M101.739,29.607
				L101.739,29.607c0-0.432,0.359-0.792,0.792-0.792c0.432,0,0.792,0.36,0.792,0.792s-0.36,0.792-0.792,0.792
				C102.098,30.399,101.739,30.039,101.739,29.607z M54.218,29.463L54.218,29.463c0-0.432,0.359-0.792,0.792-0.792
				c0.432,0,0.792,0.36,0.792,0.792c0,0.432-0.36,0.792-0.792,0.792C54.577,30.255,54.218,29.895,54.218,29.463z M59.042,29.463
				L59.042,29.463c0-0.432,0.359-0.792,0.792-0.792c0.432,0,0.792,0.36,0.792,0.792c0,0.432-0.36,0.792-0.792,0.792
				C59.401,30.255,59.042,29.895,59.042,29.463z M64.01,29.463L64.01,29.463c0-0.432,0.36-0.792,0.792-0.792s0.792,0.36,0.792,0.792
				c0,0.432-0.36,0.792-0.792,0.792S64.01,29.895,64.01,29.463z M28.153,29.247L28.153,29.247c0-0.432,0.359-0.792,0.792-0.792
				c0.432,0,0.792,0.36,0.792,0.792c0,0.432-0.36,0.792-0.792,0.792C28.512,30.039,28.153,29.679,28.153,29.247z M96.915,29.103
				L96.915,29.103c0-0.432,0.359-0.792,0.792-0.792c0.432,0,0.792,0.36,0.792,0.792s-0.36,0.792-0.792,0.792
				C97.274,29.895,96.915,29.535,96.915,29.103z M80.642,28.599L80.642,28.599c0-0.432,0.359-0.792,0.792-0.792
				c0.432,0,0.792,0.36,0.792,0.792s-0.36,0.792-0.792,0.792C81.002,29.391,80.642,29.031,80.642,28.599z M24.264,24.423
				L24.264,24.423c0-0.792-0.647-1.368-1.368-1.368c-0.792,0-1.368,0.648-1.368,1.368c0,0.792,0.648,1.368,1.368,1.368
				C23.617,25.791,24.264,25.143,24.264,24.423z M45.433,24.423L45.433,24.423c0-0.792-0.576-1.368-1.368-1.368
				c-0.72,0-1.368,0.648-1.368,1.368c0,0.792,0.648,1.368,1.368,1.368C44.857,25.791,45.433,25.143,45.433,24.423z M77.33,24.279
				L77.33,24.279c0-0.792-0.647-1.368-1.368-1.368c-0.792,0-1.368,0.576-1.368,1.368s0.648,1.368,1.368,1.368
				C76.754,25.647,77.33,24.999,77.33,24.279z M83.09,24.279L83.09,24.279c0-0.792-0.575-1.368-1.367-1.368
				s-1.368,0.576-1.368,1.368s0.576,1.368,1.368,1.368S83.09,24.999,83.09,24.279z M88.635,24.279L88.635,24.279
				c0-0.792-0.648-1.368-1.368-1.368c-0.792,0-1.368,0.576-1.368,1.368s0.648,1.368,1.368,1.368S88.635,24.999,88.635,24.279z
				 M22.033,24.423L22.033,24.423c0-0.432,0.359-0.792,0.792-0.792c0.432,0,0.792,0.36,0.792,0.792s-0.36,0.792-0.792,0.792
				C22.392,25.215,22.033,24.855,22.033,24.423z M28.153,24.423L28.153,24.423c0-0.432,0.359-0.792,0.792-0.792
				c0.432,0,0.792,0.36,0.792,0.792s-0.36,0.792-0.792,0.792C28.512,25.215,28.153,24.855,28.153,24.423z M43.273,24.423
				L43.273,24.423c0-0.432,0.36-0.792,0.792-0.792s0.792,0.36,0.792,0.792s-0.36,0.792-0.792,0.792S43.273,24.855,43.273,24.423z
				 M75.17,24.279L75.17,24.279c0-0.432,0.36-0.792,0.792-0.792c0.433,0,0.792,0.36,0.792,0.792s-0.359,0.792-0.792,0.792
				C75.53,25.071,75.17,24.711,75.17,24.279z M80.93,24.279L80.93,24.279c0-0.432,0.359-0.792,0.792-0.792
				c0.432,0,0.792,0.36,0.792,0.792s-0.36,0.792-0.792,0.792C81.29,25.071,80.93,24.711,80.93,24.279z M86.474,24.279L86.474,24.279
				c0-0.432,0.359-0.792,0.792-0.792c0.432,0,0.792,0.36,0.792,0.792s-0.36,0.792-0.792,0.792
				C86.834,25.071,86.474,24.711,86.474,24.279z M91.442,24.279L91.442,24.279c0-0.432,0.36-0.792,0.792-0.792
				c0.433,0,0.792,0.36,0.792,0.792s-0.359,0.792-0.792,0.792C91.802,25.071,91.442,24.711,91.442,24.279z M96.915,24.279
				L96.915,24.279c0-0.432,0.359-0.792,0.792-0.792c0.432,0,0.792,0.36,0.792,0.792s-0.36,0.792-0.792,0.792
				C97.274,25.071,96.915,24.711,96.915,24.279z M101.81,24.207L101.81,24.207c0-0.432,0.36-0.792,0.792-0.792
				c0.433,0,0.792,0.36,0.792,0.792c0,0.432-0.359,0.792-0.792,0.792C102.171,24.999,101.81,24.639,101.81,24.207z M33.264,23.271
				L33.264,23.271c0-0.432,0.36-0.792,0.792-0.792c0.433,0,0.793,0.36,0.793,0.792s-0.36,0.792-0.793,0.792
				C33.625,24.063,33.264,23.703,33.264,23.271z"/>
		</g>
	</g>
</g>
</svg>
